<?xml version="1.0" encoding="UTF-8" standalone="no"?>
<svg
   xmlns:dc="http://purl.org/dc/elements/1.1/"
   xmlns:cc="http://creativecommons.org/ns#"
   xmlns:rdf="http://www.w3.org/1999/02/22-rdf-syntax-ns#"
   xmlns:svg="http://www.w3.org/2000/svg"
   xmlns="http://www.w3.org/2000/svg"
   xmlns:sodipodi="http://sodipodi.sourceforge.net/DTD/sodipodi-0.dtd"
   xmlns:inkscape="http://www.inkscape.org/namespaces/inkscape"
   version="1.1"
   id="svg256"
   width="153.31975"
   height="50.529999"
   viewBox="0 0 153.31974 50.529999"
   sodipodi:docname="logo_newral_name_dark.svg"
   inkscape:version="1.0.2 (1.0.2+r75+1)">
  <metadata
     id="metadata262">
    <rdf:RDF>
      <cc:Work
         rdf:about="">
        <dc:format>image/svg+xml</dc:format>
        <dc:type
           rdf:resource="http://purl.org/dc/dcmitype/StillImage" />
        <dc:title></dc:title>
      </cc:Work>
    </rdf:RDF>
  </metadata>
  <defs
     id="defs260" />
  <sodipodi:namedview
     pagecolor="#000000"
     bordercolor="#666666"
     borderopacity="1"
     objecttolerance="10"
     gridtolerance="10"
     guidetolerance="10"
     inkscape:pageopacity="1"
     inkscape:pageshadow="2"
     inkscape:window-width="1304"
     inkscape:window-height="704"
     id="namedview258"
     showgrid="false"
     inkscape:zoom="4"
     inkscape:cx="85.421147"
     inkscape:cy="24.095345"
     inkscape:window-x="1742"
     inkscape:window-y="27"
     inkscape:window-maximized="1"
     inkscape:current-layer="g264"
     inkscape:pagecheckerboard="false"
     inkscape:document-rotation="0" />
  <g
     inkscape:groupmode="layer"
     inkscape:label="Image"
     id="g264"
     style="display:inline">
    <path
       style="display:inline;fill:#999999;fill-opacity:1;stroke:none;stroke-width:1px;stroke-linecap:butt;stroke-linejoin:miter;stroke-opacity:1"
       d="m 2.74614,43.291611 8.012567,0.0036 22.986358,-36.0396553 -8.068799,-0.00187 z"
       id="path1237" />
    <path
       id="path98"
       style="font-style:normal;font-variant:normal;font-weight:bold;font-stretch:normal;font-size:52px;font-family:Ubuntu;-inkscape-font-specification:'Ubuntu Bold';letter-spacing:-4.31px;display:inline;fill:#ffffff"
       sodipodi:type="inkscape:offset"
       inkscape:radius="0"
       inkscape:original="M 149.05664 2.9394531 L 141.30859 4.1875 L 141.30859 34.296875 C 141.30859 35.752875 141.44728 37.06938 141.72461 38.248047 C 142.03661 39.392047 142.59134 40.380891 143.38867 41.212891 C 144.22067 42.010224 145.32818 42.633318 146.71484 43.083984 C 148.13618 43.534651 149.97518 43.777833 152.22852 43.8125 L 153.32031 37.416016 C 152.38431 37.346686 151.63865 37.189932 151.08398 36.947266 C 150.52932 36.704599 150.0952 36.393052 149.7832 36.011719 C 149.50587 35.630385 149.31494 35.162089 149.21094 34.607422 C 149.10694 34.052755 149.05664 33.429661 149.05664 32.736328 L 149.05664 2.9394531 z M 2.75 7.2558594 L 2.75 43.292969 L 10.757812 43.292969 L 10.757812 19.683594 C 13.808479 23.25426 16.686625 27.050932 19.390625 31.072266 C 22.094625 35.093599 24.607021 39.167635 26.929688 43.292969 L 33.742188 43.292969 L 33.742188 7.2558594 L 25.681641 7.2558594 L 25.681641 28.523438 C 24.433641 26.651436 23.099068 24.709885 21.677734 22.699219 C 20.256401 20.653885 18.817328 18.696219 17.361328 16.824219 C 15.939995 14.917552 14.537057 13.13275 13.150391 11.46875 C 11.763724 9.8047499 10.497516 8.3998594 9.3535156 7.2558594 L 2.75 7.2558594 z M 49.035156 15.212891 C 47.371156 15.212891 45.743104 15.524437 44.148438 16.148438 C 42.588437 16.772437 41.201615 17.690964 39.988281 18.904297 C 38.774948 20.11763 37.786104 21.643135 37.023438 23.480469 C 36.295437 25.283135 35.931641 27.397552 35.931641 29.824219 C 35.931641 31.834885 36.209005 33.70612 36.763672 35.439453 C 37.353005 37.172786 38.237349 38.682177 39.416016 39.964844 C 40.629349 41.212844 42.136786 42.199734 43.939453 42.927734 C 45.776786 43.655734 47.927339 44.019531 50.388672 44.019531 C 51.359339 44.019531 52.330115 43.967281 53.300781 43.863281 C 54.271448 43.759281 55.171906 43.620599 56.003906 43.447266 C 56.870573 43.308599 57.650417 43.135734 58.34375 42.927734 C 59.037083 42.719734 59.591815 42.512687 60.007812 42.304688 L 58.96875 36.011719 C 58.102083 36.393052 56.974557 36.722667 55.587891 37 C 54.235891 37.242667 52.849068 37.363281 51.427734 37.363281 C 49.209068 37.363281 47.44038 36.896937 46.123047 35.960938 C 44.805714 35.024938 44.062005 33.75873 43.888672 32.164062 L 61.464844 32.164062 C 61.499514 31.748062 61.533694 31.279766 61.568359 30.759766 C 61.603029 30.205099 61.619141 29.70262 61.619141 29.251953 C 61.619141 24.641286 60.493568 21.158115 58.240234 18.800781 C 55.986901 16.408781 52.917823 15.212891 49.035156 15.212891 z M 126.68945 15.212891 C 125.78812 15.212891 124.88766 15.263191 123.98633 15.367188 C 123.11966 15.436518 122.28757 15.541021 121.49023 15.679688 C 120.6929 15.783686 119.94724 15.92237 119.25391 16.095703 C 118.59524 16.23437 118.04051 16.373052 117.58984 16.511719 L 118.57812 22.751953 C 119.51413 22.405286 120.62358 22.14599 121.90625 21.972656 C 123.18892 21.764656 124.48931 21.660156 125.80664 21.660156 C 127.78264 21.660156 129.16751 22.058135 129.96484 22.855469 C 130.76218 23.652802 131.16211 24.71001 131.16211 26.027344 L 131.16211 26.755859 C 130.67678 26.617193 130.03561 26.512693 129.23828 26.443359 C 128.47561 26.339359 127.59127 26.287109 126.58594 26.287109 C 125.09527 26.287109 123.6562 26.443859 122.26953 26.755859 C 120.88286 27.033193 119.6528 27.50149 118.57812 28.160156 C 117.50347 28.818823 116.63718 29.703167 115.97852 30.8125 C 115.35452 31.921833 115.04102 33.27252 115.04102 34.867188 C 115.04102 36.531188 115.31838 37.936078 115.87305 39.080078 C 116.42771 40.224078 117.22562 41.160672 118.26562 41.888672 C 119.30563 42.582005 120.5357 43.084484 121.95703 43.396484 C 123.41303 43.708484 125.02497 43.863281 126.79297 43.863281 C 129.60097 43.863281 131.9947 43.690417 133.9707 43.34375 C 135.9467 43.03175 137.48832 42.754385 138.59766 42.511719 L 138.59766 26.392578 C 138.59766 24.693911 138.40672 23.150339 138.02539 21.763672 C 137.64406 20.377005 136.98483 19.199182 136.04883 18.228516 C 135.14749 17.257849 133.93549 16.512186 132.41016 15.992188 C 130.88482 15.472186 128.97745 15.212891 126.68945 15.212891 z M 110.98047 15.367188 C 108.6578 15.367188 106.54339 15.594255 104.63672 16.044922 C 102.76472 16.460922 101.13471 16.911151 99.748047 17.396484 L 99.748047 43.292969 L 107.49609 43.292969 L 107.49609 22.388672 C 107.84276 22.284672 108.34524 22.19824 109.00391 22.128906 C 109.69724 22.024906 110.28615 21.972656 110.77148 21.972656 C 111.84615 21.972656 112.85111 22.075203 113.78711 22.283203 C 114.72311 22.456536 115.53909 22.631354 116.23242 22.804688 L 117.53125 16.408203 C 117.11525 16.23487 116.61277 16.096187 116.02344 15.992188 C 115.4341 15.853521 114.84519 15.749021 114.25586 15.679688 C 113.66653 15.575686 113.07761 15.507323 112.48828 15.472656 C 111.89895 15.403326 111.39647 15.367188 110.98047 15.367188 z M 60.169922 15.939453 C 60.932589 18.643453 61.712432 21.330667 62.509766 24 C 63.341766 26.634667 64.139677 29.147063 64.902344 31.539062 C 65.699677 33.896397 66.461453 36.08113 67.189453 38.091797 C 67.917453 40.102464 68.59475 41.836969 69.21875 43.292969 L 75.25 43.292969 C 76.116667 40.658302 76.930693 38.039453 77.693359 35.439453 C 78.490693 32.839453 79.236354 30.222557 79.929688 27.587891 C 80.623019 30.222557 81.38675 32.839453 82.21875 35.439453 C 83.05075 38.039453 83.898958 40.658302 84.765625 43.292969 L 90.798828 43.292969 C 91.422828 41.836969 92.098172 40.102464 92.826172 38.091797 C 93.588839 36.08113 94.350615 33.896396 95.113281 31.539062 C 95.910615 29.147064 96.708526 26.634667 97.505859 24 C 98.337859 21.330667 99.135769 18.643453 99.898438 15.939453 L 91.837891 15.939453 C 91.560557 17.187453 91.24901 18.558161 90.902344 20.048828 C 90.590344 21.504828 90.242661 23.012266 89.861328 24.572266 C 89.514661 26.132266 89.13475 27.710021 88.71875 29.304688 C 88.30275 30.864687 87.886703 32.372125 87.470703 33.828125 C 87.020036 32.302792 86.585922 30.743104 86.169922 29.148438 C 85.753922 27.55377 85.355943 25.994083 84.974609 24.46875 C 84.593276 22.90875 84.229481 21.417427 83.882812 19.996094 C 83.536147 18.540094 83.222646 17.187453 82.945312 15.939453 L 77.330078 15.939453 C 77.052745 17.187453 76.72313 18.540094 76.341797 19.996094 C 75.99513 21.417427 75.613266 22.90875 75.197266 24.46875 C 74.815932 25.994083 74.399885 27.55377 73.949219 29.148438 C 73.533219 30.743104 73.101057 32.302792 72.650391 33.828125 C 72.234391 32.372125 71.818344 30.864688 71.402344 29.304688 C 71.02101 27.71002 70.639146 26.132266 70.257812 24.572266 C 69.911147 23.012266 69.565417 21.504828 69.21875 20.048828 C 68.90675 18.558161 68.611318 17.187453 68.333984 15.939453 L 60.169922 15.939453 z M 49.140625 21.607422 C 50.041958 21.607422 50.785667 21.764172 51.375 22.076172 C 51.999 22.388172 52.503432 22.786151 52.884766 23.271484 C 53.300766 23.756818 53.594245 24.311547 53.767578 24.935547 C 53.975578 25.559547 54.098146 26.200708 54.132812 26.859375 L 43.888672 26.859375 C 43.992672 26.200708 44.147469 25.559547 44.355469 24.935547 C 44.598135 24.27688 44.92775 23.706036 45.34375 23.220703 C 45.75975 22.73537 46.280297 22.353505 46.904297 22.076172 C 47.528297 21.764172 48.273958 21.607422 49.140625 21.607422 z M 128.04102 31.488281 C 128.56102 31.488281 129.13381 31.522461 129.75781 31.591797 C 130.38181 31.661127 130.85011 31.731448 131.16211 31.800781 L 131.16211 37.675781 C 130.74611 37.745111 130.19138 37.797365 129.49805 37.832031 C 128.80471 37.866701 128.07712 37.884766 127.31445 37.884766 C 125.89312 37.884766 124.76559 37.657698 123.93359 37.207031 C 123.13626 36.721698 122.73828 35.87349 122.73828 34.660156 C 122.73828 34.036156 122.87696 33.515609 123.1543 33.099609 C 123.43163 32.683609 123.81153 32.353995 124.29688 32.111328 C 124.78221 31.868661 125.33694 31.713865 125.96094 31.644531 C 126.6196 31.540531 127.31302 31.488281 128.04102 31.488281 z "
       d="M 149.05664,2.9394531 141.30859,4.1875 v 30.109375 c 0,1.456 0.13869,2.772505 0.41602,3.951172 0.312,1.144 0.86673,2.132844 1.66406,2.964844 0.832,0.797333 1.93951,1.420427 3.32617,1.871093 1.42134,0.450667 3.26034,0.693849 5.51368,0.728516 l 1.09179,-6.396484 c -0.936,-0.06933 -1.68166,-0.226084 -2.23633,-0.46875 -0.55466,-0.242667 -0.98878,-0.554214 -1.30078,-0.935547 -0.27733,-0.381334 -0.46826,-0.84963 -0.57226,-1.404297 -0.104,-0.554667 -0.1543,-1.177761 -0.1543,-1.871094 z M 2.75,7.2558594 V 43.292969 h 8.007812 V 19.683594 c 3.050667,3.570666 5.928813,7.367338 8.632813,11.388672 2.704,4.021333 5.216396,8.095369 7.539063,12.220703 h 6.8125 V 7.2558594 H 25.681641 V 28.523438 c -1.248,-1.872002 -2.582573,-3.813553 -4.003907,-5.824219 -1.421333,-2.045334 -2.860406,-4.003 -4.316406,-5.875 C 15.939995,14.917552 14.537057,13.13275 13.150391,11.46875 11.763724,9.8047499 10.497516,8.3998594 9.3535156,7.2558594 Z m 46.285156,7.9570316 c -1.664,0 -3.292052,0.311546 -4.886718,0.935547 -1.560001,0.623999 -2.946823,1.542526 -4.160157,2.755859 -1.213333,1.213333 -2.202177,2.738838 -2.964843,4.576172 -0.728001,1.802666 -1.091797,3.917083 -1.091797,6.34375 0,2.010666 0.277364,3.881901 0.832031,5.615234 0.589333,1.733333 1.473677,3.242724 2.652344,4.525391 1.213333,1.248 2.72077,2.23489 4.523437,2.96289 1.837333,0.728 3.987886,1.091797 6.449219,1.091797 0.970667,0 1.941443,-0.05225 2.912109,-0.15625 0.970667,-0.104 1.871125,-0.242682 2.703125,-0.416015 0.866667,-0.138667 1.646511,-0.311532 2.339844,-0.519532 0.693333,-0.208 1.248065,-0.415047 1.664062,-0.623046 L 58.96875,36.011719 C 58.102083,36.393052 56.974557,36.722667 55.587891,37 c -1.352,0.242667 -2.738823,0.363281 -4.160157,0.363281 -2.218666,0 -3.987354,-0.466344 -5.304687,-1.402343 -1.317333,-0.936 -2.061042,-2.202208 -2.234375,-3.796876 h 17.576172 c 0.03467,-0.416 0.06885,-0.884296 0.103515,-1.404296 0.03467,-0.554667 0.05078,-1.057146 0.05078,-1.507813 0,-4.610667 -1.125573,-8.093838 -3.378907,-10.451172 -2.253333,-2.392 -5.322411,-3.58789 -9.205078,-3.58789 z m 77.654294,0 c -0.90133,0 -1.80179,0.0503 -2.70312,0.154297 -0.86667,0.06933 -1.69876,0.173833 -2.4961,0.3125 -0.79733,0.103998 -1.54299,0.242682 -2.23632,0.416015 -0.65867,0.138667 -1.2134,0.277349 -1.66407,0.416016 l 0.98828,6.240234 c 0.93601,-0.346667 2.04546,-0.605963 3.32813,-0.779297 1.28267,-0.208 2.58306,-0.3125 3.90039,-0.3125 1.976,0 3.36087,0.397979 4.1582,1.195313 0.79734,0.797333 1.19727,1.854541 1.19727,3.171875 v 0.728515 c -0.48533,-0.138666 -1.1265,-0.243166 -1.92383,-0.3125 -0.76267,-0.104 -1.64701,-0.15625 -2.65234,-0.15625 -1.49067,0 -2.92974,0.15675 -4.31641,0.46875 -1.38667,0.277334 -2.61673,0.745631 -3.69141,1.404297 -1.07465,0.658667 -1.94094,1.543011 -2.5996,2.652344 -0.624,1.109333 -0.9375,2.46002 -0.9375,4.054688 0,1.664 0.27736,3.06889 0.83203,4.21289 0.55466,1.144 1.35257,2.080594 2.39257,2.808594 1.04001,0.693333 2.27008,1.195812 3.69141,1.507812 1.456,0.312 3.06794,0.466797 4.83594,0.466797 2.808,0 5.20173,-0.172864 7.17773,-0.519531 1.976,-0.312 3.51762,-0.589365 4.62696,-0.832031 V 26.392578 c 0,-1.698667 -0.19094,-3.242239 -0.57227,-4.628906 -0.38133,-1.386667 -1.04056,-2.56449 -1.97656,-3.535156 -0.90134,-0.970667 -2.11334,-1.71633 -3.63867,-2.236328 -1.52534,-0.520002 -3.43271,-0.779297 -5.72071,-0.779297 z m -15.70898,0.154297 c -2.32267,0 -4.43708,0.227067 -6.34375,0.677734 -1.872,0.416 -3.50201,0.866229 -4.888673,1.351562 v 25.896485 h 7.748043 V 22.388672 c 0.34667,-0.104 0.84915,-0.190432 1.50782,-0.259766 0.69333,-0.104 1.28224,-0.15625 1.76757,-0.15625 1.07467,0 2.07963,0.102547 3.01563,0.310547 0.936,0.173333 1.75198,0.348151 2.44531,0.521485 l 1.29883,-6.396485 c -0.416,-0.173333 -0.91848,-0.312016 -1.50781,-0.416015 -0.58934,-0.138667 -1.17825,-0.243167 -1.76758,-0.3125 -0.58933,-0.104002 -1.17825,-0.172365 -1.76758,-0.207032 -0.58933,-0.06933 -1.09181,-0.105468 -1.50781,-0.105468 z m -50.810548,0.572265 c 0.762667,2.704 1.54251,5.391214 2.339844,8.060547 0.832,2.634667 1.629911,5.147063 2.392578,7.539062 0.797333,2.357335 1.559109,4.542068 2.287109,6.552735 0.728,2.010667 1.405297,3.745172 2.029297,5.201172 H 75.25 c 0.866667,-2.634667 1.680693,-5.253516 2.443359,-7.853516 0.797334,-2.6 1.542995,-5.216896 2.236329,-7.851562 0.693331,2.634666 1.457062,5.251562 2.289062,7.851562 0.832,2.6 1.680208,5.218849 2.546875,7.853516 h 6.033203 c 0.624,-1.456 1.299344,-3.190505 2.027344,-5.201172 0.762667,-2.010667 1.524443,-4.195401 2.287109,-6.552735 0.797334,-2.391998 1.595245,-4.904395 2.392578,-7.539062 0.832,-2.669333 1.62991,-5.356547 2.392579,-8.060547 h -8.060547 c -0.277334,1.248 -0.588881,2.618708 -0.935547,4.109375 -0.312,1.456 -0.659683,2.963438 -1.041016,4.523438 -0.346667,1.56 -0.726578,3.137755 -1.142578,4.732422 -0.416,1.559999 -0.832047,3.067437 -1.248047,4.523437 -0.450667,-1.525333 -0.884781,-3.085021 -1.300781,-4.679687 -0.416,-1.594668 -0.813979,-3.154355 -1.195313,-4.679688 -0.381333,-1.56 -0.745128,-3.051323 -1.091797,-4.472656 -0.346665,-1.456 -0.660166,-2.808641 -0.9375,-4.056641 h -5.615234 c -0.277333,1.248 -0.606948,2.600641 -0.988281,4.056641 -0.346667,1.421333 -0.728531,2.912656 -1.144531,4.472656 -0.381334,1.525333 -0.797381,3.08502 -1.248047,4.679688 -0.416,1.594666 -0.848162,3.154354 -1.298828,4.679687 -0.416,-1.456 -0.832047,-2.963437 -1.248047,-4.523437 -0.381334,-1.594668 -0.763198,-3.172422 -1.144532,-4.732422 -0.346665,-1.56 -0.692395,-3.067438 -1.039062,-4.523438 -0.312,-1.490667 -0.607432,-2.861375 -0.884766,-4.109375 z m -11.029297,5.667969 c 0.901333,0 1.645042,0.15675 2.234375,0.46875 0.624,0.312 1.128432,0.709979 1.509766,1.195312 0.416,0.485334 0.709479,1.040063 0.882812,1.664063 0.208,0.624 0.330568,1.265161 0.365234,1.923828 h -10.24414 c 0.104,-0.658667 0.258797,-1.299828 0.466797,-1.923828 0.242666,-0.658667 0.572281,-1.229511 0.988281,-1.714844 0.416,-0.485333 0.936547,-0.867198 1.560547,-1.144531 0.624,-0.312 1.369661,-0.46875 2.236328,-0.46875 z m 78.900395,9.880859 c 0.52,0 1.09279,0.03418 1.71679,0.103516 0.624,0.06933 1.0923,0.139651 1.4043,0.208984 v 5.875 c -0.416,0.06933 -0.97073,0.121584 -1.66406,0.15625 -0.69334,0.03467 -1.42093,0.05273 -2.1836,0.05273 -1.42133,0 -2.54886,-0.227068 -3.38086,-0.677735 -0.79733,-0.485333 -1.19531,-1.333541 -1.19531,-2.546875 0,-0.624 0.13868,-1.144547 0.41602,-1.560547 0.27733,-0.416 0.65723,-0.745614 1.14258,-0.988281 0.48533,-0.242667 1.04006,-0.397463 1.66406,-0.466797 0.65866,-0.104 1.35208,-0.15625 2.08008,-0.15625 z" />
    <circle
       id="path346"
       cx="29.669996"
       cy="7.25"
       style="display:inline;fill:#ffcc00;stroke-width:1.14045"
       r="7.25" />
    <circle
       id="path346-4"
       cx="7.25"
       cy="7.25"
       style="display:inline;fill:#ffcc00;stroke-width:1.14045"
       r="7.25" />
    <circle
       id="path346-4-8"
       cx="7.25"
       cy="43.279999"
       style="display:inline;fill:#ffcc00;stroke-width:1.14045"
       r="7.25" />
    <circle
       id="path346-4-8-2"
       cx="29.669996"
       cy="43.279999"
       style="display:inline;fill:#ffcc00;stroke-width:1.14045"
       r="7.25" />
  </g>
</svg>
