<?xml version="1.0" encoding="UTF-8" standalone="no"?>
<svg
   xmlns:dc="http://purl.org/dc/elements/1.1/"
   xmlns:cc="http://creativecommons.org/ns#"
   xmlns:rdf="http://www.w3.org/1999/02/22-rdf-syntax-ns#"
   xmlns:svg="http://www.w3.org/2000/svg"
   xmlns="http://www.w3.org/2000/svg"
   xmlns:sodipodi="http://sodipodi.sourceforge.net/DTD/sodipodi-0.dtd"
   xmlns:inkscape="http://www.inkscape.org/namespaces/inkscape"
   inkscape:export-ydpi="190.01471"
   inkscape:export-xdpi="190.01471"
   inkscape:export-filename="/home/bsanse/Newral/images/old/logo_newral_name_bright_alt5.png"
   inkscape:version="1.0.2 (1.0.2+r75+1)"
   sodipodi:docname="logo_newral_name_bright.svg"
   viewBox="0 0 211.18364 50.529999"
   height="50.529999"
   width="211.18365"
   id="svg256"
   version="1.1">
  <metadata
     id="metadata262">
    <rdf:RDF>
      <cc:Work
         rdf:about="">
        <dc:format>image/svg+xml</dc:format>
        <dc:type
           rdf:resource="http://purl.org/dc/dcmitype/StillImage" />
        <dc:title />
      </cc:Work>
    </rdf:RDF>
  </metadata>
  <defs
     id="defs260" />
  <sodipodi:namedview
     pagecolor="#ffffff"
     bordercolor="#666666"
     borderopacity="1"
     objecttolerance="10"
     gridtolerance="10"
     guidetolerance="10"
     inkscape:pageopacity="1"
     inkscape:pageshadow="2"
     inkscape:window-width="1304"
     inkscape:window-height="704"
     id="namedview258"
     showgrid="false"
     inkscape:zoom="3.3906815"
     inkscape:cx="86.042613"
     inkscape:cy="67.979373"
     inkscape:window-x="62"
     inkscape:window-y="27"
     inkscape:window-maximized="1"
     inkscape:current-layer="g264"
     inkscape:pagecheckerboard="false"
     inkscape:document-rotation="0" />
  <g
     inkscape:groupmode="layer"
     inkscape:label="Image"
     id="g264"
     style="display:inline">
    <path
       style="display:inline;fill:#916f8a;fill-opacity:1;stroke:none;stroke-width:1px;stroke-linecap:butt;stroke-linejoin:miter;stroke-opacity:1"
       d="m 2.74614,43.291611 8.012567,0.0036 22.986358,-36.0396553 -8.068799,-0.00187 z"
       id="path1237" />
    <path
       id="path43"
       style="letter-spacing:-1.72px"
       d="m 152.22775,43.812 q -3.38,-0.052 -5.512,-0.728 -2.08,-0.676 -3.328,-1.872 -1.196,-1.248 -1.664,-2.964 -0.416,-1.768 -0.416,-3.952 V 4.1879998 l 7.748,-1.248 V 32.736 q 0,1.04 0.156,1.872 0.156,0.832 0.572,1.404 0.468,0.572 1.3,0.936 0.832,0.364 2.236,0.468 z m -24.91398,-5.928 q 1.144,0 2.184,-0.052 1.04,-0.052 1.664,-0.156 V 31.8 q -0.468,-0.104 -1.404,-0.208 -0.936,-0.104 -1.716,-0.104 -1.092,0 -2.08,0.156 -0.936,0.104 -1.664,0.468 -0.728,0.364 -1.144,0.988 -0.416,0.624 -0.416,1.56 0,1.82 1.196,2.548 1.248,0.676 3.38,0.676 z m -0.624,-22.672 q 3.432,0 5.72,0.78 2.288,0.78 3.64,2.236 1.404,1.456 1.976,3.536 0.572,2.08 0.572,4.628 v 16.12 q -1.664,0.364 -4.628,0.832 -2.964,0.52 -7.176,0.52 -2.652,0 -4.836,-0.468 -2.132,-0.468 -3.692,-1.508 -1.56,-1.092 -2.392,-2.808 -0.832,-1.716 -0.832,-4.212 0,-2.392 0.936,-4.056 0.988,-1.664 2.6,-2.652 1.612,-0.988 3.692,-1.404 2.08,-0.468 4.316,-0.468 1.508,0 2.652,0.156 1.196,0.104 1.924,0.312 v -0.728 q 0,-1.976 -1.196,-3.172 -1.196,-1.196 -4.16,-1.196 -1.976,0 -3.9,0.312 -1.924,0.26 -3.328,0.78 l -0.988,-6.24 q 0.676,-0.208 1.664,-0.416 1.04,-0.26 2.236,-0.416 1.196,-0.208 2.496,-0.312 1.352,-0.156 2.704,-0.156 z m -10.45794,7.592 q -1.04,-0.26 -2.444,-0.52 -1.404,-0.312 -3.016,-0.312 -0.728,0 -1.768,0.156 -0.988,0.104 -1.508,0.26 V 43.292 H 99.747832 V 17.396 q 2.079998,-0.728 4.887998,-1.352 2.86,-0.676 6.344,-0.676 0.624,0 1.508,0.104 0.884,0.052 1.768,0.208 0.884,0.104 1.768,0.312 0.884,0.156 1.508,0.416 z m -36.301918,4.784 q -1.04,3.952 -2.236,7.852 -1.144,3.9 -2.444,7.852 h -6.032 q -0.936,-2.184 -2.028,-5.2 -1.092,-3.016 -2.288,-6.552 -1.144,-3.588 -2.392,-7.54 -1.196,-4.004 -2.34,-8.06 h 8.164 q 0.416,1.872 0.884,4.108 0.52,2.184 1.04,4.524 0.572,2.34 1.144,4.732 0.624,2.34 1.248,4.524 0.676,-2.288 1.3,-4.68 0.676,-2.392 1.248,-4.68 0.624,-2.34 1.144,-4.472 0.572,-2.184 0.988,-4.056 h 5.616 q 0.416,1.872 0.936,4.056 0.52,2.132 1.092,4.472 0.572,2.288 1.196,4.68 0.624,2.392 1.3,4.68 0.624,-2.184 1.248,-4.524 0.624,-2.392 1.144,-4.732 0.572,-2.34 1.04,-4.524 0.52,-2.236 0.936,-4.108 h 8.06 q -1.144,4.056 -2.392,8.06 -1.196,3.952 -2.392,7.54 -1.144,3.536 -2.288,6.552 -1.092,3.016 -2.028,5.2 h -6.032 q -1.3,-3.952 -2.548,-7.852 -1.248,-3.9 -2.288,-7.852 z m -43.997984,2.236 q 0,-3.64 1.092,-6.344 1.144,-2.756 2.964,-4.576 1.82,-1.82 4.16,-2.756 2.392,-0.936 4.888,-0.936 5.824,0 9.204,3.588 3.38,3.536 3.38,10.452 0,0.676 -0.052,1.508 -0.052,0.78 -0.104,1.404 h -17.576 q 0.26,2.392 2.236,3.796 1.976,1.404 5.304,1.404 2.132,0 4.16,-0.364 2.08,-0.416 3.38,-0.988 l 1.04,6.292 q -0.624,0.312 -1.664,0.624 -1.04,0.312 -2.34,0.52 -1.248,0.26 -2.704,0.416 -1.456,0.156 -2.912,0.156 -3.692,0 -6.448,-1.092 -2.704,-1.092 -4.524,-2.964 -1.768,-1.924 -2.652,-4.524 -0.832,-2.6 -0.832,-5.616 z m 18.2,-2.964 q -0.052,-0.988 -0.364,-1.924 -0.26,-0.936 -0.884,-1.664 -0.572,-0.728 -1.508,-1.196 -0.884,-0.468 -2.236,-0.468 -1.3,0 -2.236,0.468 -0.936,0.416 -1.56,1.144 -0.624,0.728 -0.988,1.716 -0.312,0.936 -0.468,1.924 z M 26.930002,43.292 q -3.484,-6.188 -7.54,-12.22 -4.056,-6.032 -8.632,-11.388 V 43.292 H 2.7500017 V 7.2559998 h 6.604 q 1.7160003,1.716 3.7960003,4.2120002 2.08,2.496 4.212,5.356 2.184,2.808 4.316,5.876 2.132,3.016 4.004,5.824 V 7.2559998 h 8.06 V 43.292 Z" />
    <path
       id="path47"
       style="fill:#8a6f91"
       d="m 203.07166,7.2559998 h 8.112 V 43.292 h -8.112 z M 191.42773,43.292 q -0.572,-1.872 -1.3,-3.848 -0.676,-1.976 -1.352,-3.952 h -14.04 q -0.676,1.976 -1.404,3.952 -0.676,1.976 -1.248,3.848 h -8.424 q 2.028,-5.824 3.848,-10.764 1.82,-4.94 3.536,-9.308 1.768,-4.368 3.432,-8.268 1.716,-3.952 3.536,-7.6960002 h 7.748 q 1.768,3.7440002 3.484,7.6960002 1.716,3.9 3.432,8.268 1.768,4.368 3.588,9.308 1.82,4.94 3.848,10.764 z m -9.724,-27.872 q -0.26,0.78 -0.78,2.132 -0.52,1.352 -1.196,3.12 -0.676,1.768 -1.508,3.9 -0.78,2.132 -1.612,4.472 h 10.244 q -0.832,-2.34 -1.612,-4.472 -0.78,-2.132 -1.508,-3.9 -0.676,-1.768 -1.196,-3.12 -0.52,-1.352 -0.832,-2.132 z" />
    <circle
       id="path346"
       cx="29.669996"
       cy="7.25"
       style="display:inline;fill:#c837ab;stroke-width:1.14045"
       r="7.25" />
    <circle
       id="path346-4"
       cx="7.25"
       cy="7.25"
       style="fill:#c837ab;stroke-width:1.14045"
       r="7.25" />
    <circle
       id="path346-4-8"
       cx="7.25"
       cy="43.279999"
       style="display:inline;fill:#c837ab;stroke-width:1.14045"
       r="7.25" />
    <circle
       id="path346-4-8-2"
       cx="29.669996"
       cy="43.279999"
       style="display:inline;fill:#c837ab;stroke-width:1.14045"
       r="7.25" />
  </g>
</svg>
